# File created by Blade
# Date/Time:  Thu Sep 25 21:01:51 2014
# Frame Rate: 120.000 fps
#------------------------------------------------------
:FULLY-SPECIFIED
:DEGREES
1068
root -0.035260 2.617491 -8.256229 -21.310084 1.675581 -0.786772
Spine 22.864786 8.269067 -2.171650
Head -12.250752 -18.545930 16.419010
LeftShoulder -4.788355 12.963325 17.812592
LeftArm 32.017996 16.261075 -54.443649
LeftForeArm -28.132812 -0.000000 97.140372
LeftHand -12.905954 -0.000000 -25.432851
LeftHandThumb1 -26.253704 0.000000 33.147579
RightShoulder -14.604964 16.112233 -35.234064
RightArm -14.546896 -14.922430 92.416701
RightForeArm -53.287814 -0.000000 102.519007
RightHand -17.293700 0.000000 39.677262
RightHandThumb1 -24.326973 -0.000000 -32.862282
LeftUpLeg -119.596286 -38.681093 -62.167901
LeftLeg 122.949560 -0.000000 -0.000000
LeftFoot 58.282367 -34.015390 -49.105986
LeftToeBase -12.292054 -0.000000 0.000000
RightUpLeg -70.099464 -8.989722 6.905260
RightLeg 7.156757 -0.000000 -0.000000
RightFoot 22.787719 -1.083839 9.381965
RightToeBase -2.585832 -0.000000 0.000000
1069
root -0.034674 2.616325 -8.255631 -21.302836 1.685091 -0.791536
Spine 22.845310 8.276179 -2.180248
Head -12.311882 -18.678461 16.460971
LeftShoulder -4.805308 12.962744 17.833338
LeftArm 32.020851 16.281843 -54.456783
LeftForeArm -28.145931 0.000000 97.132748
LeftHand -12.937035 -0.000000 -25.401723
LeftHandThumb1 -26.253704 0.000000 33.147579
RightShoulder -14.611961 16.139390 -35.237086
RightArm -14.579226 -14.948789 92.432482
RightForeArm -53.277390 -0.000000 102.526672
RightHand -17.242697 0.000000 39.726973
RightHandThumb1 -24.326973 -0.000000 -32.862282
LeftUpLeg -119.616851 -38.685433 -62.153544
LeftLeg 122.975990 -0.000000 -0.000000
LeftFoot 58.270854 -33.987576 -49.121295
LeftToeBase -12.284187 -0.000000 0.000000
RightUpLeg -70.111370 -9.002634 6.894368
RightLeg 7.171696 -0.000000 -0.000000
RightFoot 22.753756 -1.133300 9.350727
RightToeBase -2.540196 -0.000000 0.000000
1070
root -0.034438 2.615700 -8.255549 -21.284717 1.686318 -0.790622
Spine 22.810582 8.292923 -2.186528
Head -12.356085 -18.799557 16.472264
LeftShoulder -4.804106 12.974138 17.841253
LeftArm 32.001498 16.275483 -54.471027
LeftForeArm -28.127509 -0.000000 97.140289
LeftHand -12.951640 -0.000000 -25.409442
LeftHandThumb1 -26.253704 0.000000 33.147579
RightShoulder -14.599647 16.114020 -35.229081
RightArm -14.576804 -14.936140 92.460615
RightForeArm -53.273631 -0.000000 102.498461
RightHand -17.267988 -0.000000 39.736071
RightHandThumb1 -24.326973 -0.000000 -32.862282
LeftUpLeg -119.650322 -38.690847 -62.139367
LeftLeg 123.004005 -0.000000 -0.000000
LeftFoot 58.244559 -33.988854 -49.102409
LeftToeBase -12.240262 -0.000000 0.000000
RightUpLeg -70.119584 -9.001056 6.880055
RightLeg 7.155281 -0.000000 -0.000000
RightFoot 22.748797 -1.221577 9.381713
RightToeBase -2.484985 -0.000000 0.000000
1071
root -0.034113 2.614966 -8.254434 -21.273280 1.695416 -0.788751
Spine 22.783556 8.306966 -2.197153
Head -12.398988 -18.897853 16.493465
LeftShoulder -4.814699 13.007548 17.858605
LeftArm 32.010808 16.266705 -54.483280
LeftForeArm -28.105967 -0.000000 97.138290
LeftHand -12.964534 0.000000 -25.364749
LeftHandThumb1 -26.253704 0.000000 33.147579
RightShoulder -14.596669 16.107548 -35.257021
RightArm -14.614772 -14.990637 92.498736
RightForeArm -53.266370 0.000000 102.482542
RightHand -17.305105 -0.000000 39.619598
RightHandThumb1 -24.326973 -0.000000 -32.862282
LeftUpLeg -119.676996 -38.694858 -62.132675
LeftLeg 123.024400 -0.000000 -0.000000
LeftFoot 58.281761 -33.989711 -49.117773
LeftToeBase -12.348595 -0.000000 0.000000
RightUpLeg -70.122476 -9.003744 6.843798
RightLeg 7.149251 -0.000000 -0.000000
RightFoot 22.719203 -1.245997 9.303442
RightToeBase -2.453757 -0.000000 0.000000
1072
root -0.033433 2.612941 -8.253875 -21.247462 1.707286 -0.791749
Spine 22.740728 8.309461 -2.201143
Head -12.434110 -18.983439 16.498455
LeftShoulder -4.832198 13.026293 17.868151
LeftArm 31.998420 16.265628 -54.503342
LeftForeArm -28.080754 -0.000000 97.143206
LeftHand -12.964800 -0.000000 -25.392162
LeftHandThumb1 -26.253704 0.000000 33.147579
RightShoulder -14.587093 16.078369 -35.265229
RightArm -14.634658 -14.970263 92.554894
RightForeArm -53.294419 -0.000000 102.503307
RightHand -17.280874 -0.000000 39.594364
RightHandThumb1 -24.326973 -0.000000 -32.862282
LeftUpLeg -119.709491 -38.714022 -62.116833
LeftLeg 123.030957 -0.000000 -0.000000
LeftFoot 58.331475 -34.000853 -49.162669
LeftToeBase -12.309295 -0.000000 0.000000
RightUpLeg -70.152477 -9.017045 6.839405
RightLeg 7.155396 -0.000000 -0.000000
RightFoot 22.696224 -1.296014 9.289047
RightToeBase -2.403544 -0.000000 0.000000
1073
root -0.032576 2.611629 -8.254271 -21.228575 1.729500 -0.796903
Spine 22.723506 8.309949 -2.208077
Head -12.505109 -19.066875 16.526910
LeftShoulder -4.843899 13.024546 17.877414
LeftArm 31.978495 16.264868 -54.522535
LeftForeArm -28.039019 0.000000 97.148912
LeftHand -12.979519 -0.000000 -25.372133
LeftHandThumb1 -26.253704 0.000000 33.147579
RightShoulder -14.599918 16.066164 -35.252854
RightArm -14.652653 -14.960724 92.594232
RightForeArm -53.347196 0.000000 102.544038
RightHand -17.305482 -0.000000 39.622390
RightHandThumb1 -24.326973 -0.000000 -32.862282
LeftUpLeg -119.729727 -38.723062 -62.108840
LeftLeg 123.033191 -0.000000 -0.000000
LeftFoot 58.419069 -34.051219 -49.237626
LeftToeBase -12.228789 -0.000000 0.000000
RightUpLeg -70.192049 -9.061090 6.890662
RightLeg 7.167830 -0.000000 -0.000000
RightFoot 22.707733 -1.347174 9.324736
RightToeBase -2.418047 -0.000000 0.000000
1074
root -0.033723 2.610565 -8.253039 -21.205473 1.739596 -0.801258
Spine 22.686628 8.308082 -2.223515
Head -12.544041 -19.115343 16.558627
LeftShoulder -4.870042 13.035588 17.881670
LeftArm 31.954481 16.266353 -54.530128
LeftForeArm -28.051209 0.000000 97.150002
LeftHand -12.985443 -0.000000 -25.434935
LeftHandThumb1 -26.253704 0.000000 33.147579
RightShoulder -14.611199 16.034327 -35.219792
RightArm -14.626247 -14.991021 92.612071
RightForeArm -53.391627 -0.000000 102.572757
RightHand -17.338013 -0.000000 39.623761
RightHandThumb1 -24.326973 -0.000000 -32.862282
LeftUpLeg -119.770155 -38.738734 -62.106831
LeftLeg 123.053202 -0.000000 -0.000000
LeftFoot 58.457481 -34.045286 -49.261031
LeftToeBase -12.157071 -0.000000 0.000000
RightUpLeg -70.201486 -9.062702 6.862001
RightLeg 7.151955 -0.000000 -0.000000
RightFoot 22.708329 -1.386820 9.322852
RightToeBase -2.461839 -0.000000 0.000000
1075
root -0.033500 2.608799 -8.252979 -21.179504 1.760454 -0.812172
Spine 22.651833 8.302013 -2.227367
Head -12.581508 -19.170238 16.585217
LeftShoulder -4.876028 13.050042 17.887174
LeftArm 31.931894 16.272496 -54.539757
LeftForeArm -28.072280 -0.000000 97.149059
LeftHand -12.940156 -0.000000 -25.428540
LeftHandThumb1 -26.253704 0.000000 33.147579
RightShoulder -14.617715 16.044495 -35.193076
RightArm -14.643399 -15.002142 92.606323
RightForeArm -53.398704 -0.000000 102.601999
RightHand -17.333584 -0.000000 39.626616
RightHandThumb1 -24.326973 -0.000000 -32.862282
LeftUpLeg -119.806415 -38.757927 -62.085315
LeftLeg 123.062707 -0.000000 -0.000000
LeftFoot 58.500416 -34.039600 -49.288125
LeftToeBase -12.194913 -0.000000 0.000000
RightUpLeg -70.241826 -9.102503 6.909575
RightLeg 7.154742 -0.000000 -0.000000
RightFoot 22.723201 -1.390954 9.326737
RightToeBase -2.423231 -0.000000 0.000000
1076
root -0.032530 2.606000 -8.252601 -21.150107 1.787894 -0.827901
Spine 22.607838 8.290473 -2.229438
Head -12.602728 -19.231118 16.624878
LeftShoulder -4.881390 13.064415 17.896495
LeftArm 31.922343 16.293967 -54.525532
LeftForeArm -28.049027 -0.000000 97.152999
LeftHand -12.912766 -0.000000 -25.410052
LeftHandThumb1 -26.253704 0.000000 33.147579
RightShoulder -14.650767 16.095272 -35.184492
RightArm -14.678858 -15.050522 92.598727
RightForeArm -53.364154 -0.000000 102.603755
RightHand -17.363544 -0.000000 39.642125
RightHandThumb1 -24.326973 -0.000000 -32.862282
LeftUpLeg -119.845992 -38.775360 -62.048495
LeftLeg 123.030460 -0.000000 -0.000000
LeftFoot 58.694194 -34.002792 -49.402245
LeftToeBase -12.264009 -0.000000 0.000000
RightUpLeg -70.268624 -9.136058 6.909692
RightLeg 7.143462 -0.000000 -0.000000
RightFoot 22.727458 -1.379899 9.316484
RightToeBase -2.468405 -0.000000 0.000000
1077
root -0.032279 2.605519 -8.251765 -21.139180 1.809749 -0.830407
Spine 22.591797 8.277893 -2.252786
Head -12.633079 -19.261628 16.681455
LeftShoulder -4.895199 13.089401 17.902620
LeftArm 31.913862 16.287850 -54.522018
LeftForeArm -28.131243 0.000000 97.141277
LeftHand -12.905339 -0.000000 -25.396294
LeftHandThumb1 -26.253704 0.000000 33.147579
RightShoulder -14.660545 16.099519 -35.149558
RightArm -14.642267 -15.096165 92.572575
RightForeArm -53.353080 -0.000000 102.591829
RightHand -17.334899 0.000000 39.643865
RightHandThumb1 -24.326973 -0.000000 -32.862282
LeftUpLeg -119.872974 -38.779443 -62.046875
LeftLeg 123.053270 -0.000000 -0.000000
LeftFoot 58.638187 -33.993754 -49.328275
LeftToeBase -12.186061 -0.000000 0.000000
RightUpLeg -70.280459 -9.165795 6.916287
RightLeg 7.136564 -0.000000 -0.000000
RightFoot 22.736440 -1.359037 9.306345
RightToeBase -2.493556 -0.000000 0.000000
1078
root -0.031391 2.603286 -8.251592 -21.113397 1.821475 -0.838090
Spine 22.545777 8.274923 -2.264460
Head -12.626337 -19.286900 16.726347
LeftShoulder -4.888970 13.102195 17.933479
LeftArm 31.870646 16.304415 -54.554273
LeftForeArm -28.140976 -0.000000 97.137784
LeftHand -12.882360 0.000000 -25.404681
LeftHandThumb1 -26.253704 0.000000 33.147579
RightShoulder -14.684798 16.172349 -35.168166
RightArm -14.676878 -15.174327 92.585337
RightForeArm -53.334655 -0.000000 102.548478
RightHand -17.327369 -0.000000 39.664493
RightHandThumb1 -24.326973 -0.000000 -32.862282
LeftUpLeg -119.904872 -38.808183 -62.056801
LeftLeg 123.110123 -0.000000 -0.000000
LeftFoot 58.358276 -33.968456 -49.121378
LeftToeBase -11.984587 -0.000000 0.000000
RightUpLeg -70.307615 -9.183110 6.919653
RightLeg 7.136104 -0.000000 -0.000000
RightFoot 22.716206 -1.361764 9.320115
RightToeBase -2.372251 -0.000000 0.000000
